<?xml version="1.0" standalone="no"?>
<!DOCTYPE svg PUBLIC "-//W3C//DTD SVG 20010904//EN"
 "http://www.w3.org/TR/2001/REC-SVG-20010904/DTD/svg10.dtd">
<svg version="1.0" xmlns="http://www.w3.org/2000/svg"
 width="938.000000pt" height="974.000000pt" viewBox="0 0 938.000000 974.000000"
 preserveAspectRatio="xMidYMid meet">

<g transform="translate(0.000000,974.000000) scale(0.100000,-0.100000)"
fill="#000000" stroke="none">
<path d="M752 9120 c-42 -26 -72 -76 -72 -120 0 -44 30 -94 72 -120 33 -20 59
-20 3948 -20 3889 0 3915 0 3948 20 94 57 94 183 0 240 -33 20 -59 20 -3948
20 -3889 0 -3915 0 -3948 -20z"/>
<path d="M752 8620 c-42 -26 -72 -76 -72 -120 0 -44 30 -94 72 -120 33 -20 59
-20 3948 -20 3889 0 3915 0 3948 20 94 57 94 183 0 240 -33 20 -59 20 -3948
20 -3889 0 -3915 0 -3948 -20z"/>
<path d="M752 8100 c-42 -26 -72 -76 -72 -120 0 -44 30 -94 72 -120 33 -20 59
-20 3948 -20 3889 0 3915 0 3948 20 94 57 94 183 0 240 -33 20 -59 20 -3948
20 -3889 0 -3915 0 -3948 -20z"/>
<path d="M752 7600 c-42 -26 -72 -76 -72 -120 0 -44 30 -94 72 -120 33 -20 59
-20 3948 -20 3889 0 3915 0 3948 20 94 57 94 183 0 240 -33 20 -59 20 -3948
20 -3889 0 -3915 0 -3948 -20z"/>
<path d="M752 7100 c-42 -26 -72 -76 -72 -120 0 -44 30 -94 72 -120 33 -20 59
-20 3948 -20 3889 0 3915 0 3948 20 94 57 94 183 0 240 -33 20 -59 20 -3948
20 -3889 0 -3915 0 -3948 -20z"/>
<path d="M752 6600 c-42 -26 -72 -76 -72 -120 0 -44 30 -94 72 -120 33 -20 59
-20 3948 -20 3889 0 3915 0 3948 20 94 57 94 183 0 240 -33 20 -59 20 -3948
20 -3889 0 -3915 0 -3948 -20z"/>
<path d="M752 6080 c-42 -26 -72 -76 -72 -120 0 -44 30 -94 72 -120 33 -20 59
-20 3948 -20 3889 0 3915 0 3948 20 94 57 94 183 0 240 -33 20 -59 20 -3948
20 -3889 0 -3915 0 -3948 -20z"/>
<path d="M752 5580 c-42 -26 -72 -76 -72 -120 0 -44 30 -94 72 -120 33 -20 59
-20 3948 -20 3889 0 3915 0 3948 20 94 57 94 183 0 240 -33 20 -59 20 -3948
20 -3889 0 -3915 0 -3948 -20z"/>
<path d="M1820 4161 c-6 -13 -10 -185 -10 -489 l0 -469 -85 -5 c-99 -5 -128
-23 -128 -78 0 -27 21 -53 156 -187 135 -136 160 -156 187 -156 27 0 52 20
187 156 135 134 156 160 156 187 0 55 -29 73 -128 78 l-85 5 0 469 c0 304 -4
476 -10 489 -10 17 -22 19 -120 19 -98 0 -110 -2 -120 -19z"/>
<path d="M4560 4161 c-6 -13 -10 -185 -10 -489 l0 -469 -85 -5 c-99 -5 -128
-23 -128 -78 0 -27 21 -53 156 -187 135 -136 160 -156 187 -156 27 0 52 20
187 156 135 134 156 160 156 187 0 55 -29 73 -128 78 l-85 5 0 469 c0 304 -4
476 -10 489 -10 17 -22 19 -120 19 -98 0 -110 -2 -120 -19z"/>
<path d="M7300 4161 c-6 -13 -10 -185 -10 -489 l0 -469 -85 -5 c-99 -5 -128
-23 -128 -78 0 -27 21 -53 156 -187 135 -136 160 -156 187 -156 27 0 52 20
187 156 135 134 156 160 156 187 0 55 -29 73 -128 78 l-85 5 0 469 c0 304 -4
476 -10 489 -10 17 -22 19 -120 19 -98 0 -110 -2 -120 -19z"/>
</g>
</svg>
